<svg xmlns="http://www.w3.org/2000/svg" width="111.94" height="115" viewBox="0 0 111.94 115">
  <defs>
    <style>
      .cls-1 {
        fill: #215477;
        fill-rule: evenodd;
      }
    </style>
  </defs>
  <path id="badge" class="cls-1" d="M1222.28,266.464a17.716,17.716,0,0,0-13.29-12.361,17.74,17.74,0,0,0-25.87-18.562,17.778,17.778,0,0,0-31.85-1.263,17.747,17.747,0,0,0-25.34,18.2,17.692,17.692,0,0,0-9.88,29.536,17.686,17.686,0,0,0,9.3,29.722,17.745,17.745,0,0,0,24.98,18.693,17.778,17.778,0,0,0,31.22.61,17.744,17.744,0,0,0,25.69-17.7A17.684,17.684,0,0,0,1217.7,284a17.667,17.667,0,0,0,4.58-17.537" transform="translate(-1111.03 -225)"/>
</svg>
